<?xml version="1.0" standalone="no"?>
<!DOCTYPE svg PUBLIC "-//W3C//DTD SVG 20010904//EN"
 "http://www.w3.org/TR/2001/REC-SVG-20010904/DTD/svg10.dtd">
<svg version="1.0" xmlns="http://www.w3.org/2000/svg"
 width="254.000000pt" height="254.000000pt" viewBox="0 0 254.000000 254.000000"
 preserveAspectRatio="xMidYMid meet">
<metadata>
Created by potrace 1.14, written by Peter Selinger 2001-2017
</metadata>
<g transform="translate(0.000000,254.000000) scale(0.100000,-0.100000)"
fill="#000000" stroke="none">
<path d="M1165 2066 c-61 -30 -84 -50 -112 -96 -44 -72 -46 -165 -4 -236 15
-25 17 -36 8 -39 -6 -2 -50 -14 -96 -25 -301 -75 -565 -261 -738 -520 -33 -50
-104 -180 -98 -180 2 0 -7 -24 -20 -54 -21 -47 -36 -94 -52 -161 -12 -53 -29
-207 -28 -270 l0 -70 1235 0 1234 0 0 65 c-1 58 -10 160 -20 215 -34 187 -132
412 -226 516 -10 10 -18 22 -18 27 0 8 -142 154 -183 190 -33 27 -203 142
-211 142 -3 0 -33 13 -68 29 -35 16 -85 37 -113 46 -27 10 -57 20 -65 23 -24
8 -42 12 -92 18 -26 4 -49 13 -52 20 -3 8 -2 14 3 14 4 0 15 18 24 40 17 44
17 137 -1 181 -29 73 -120 137 -204 145 -43 4 -63 0 -103 -20z m165 -128 c80
-58 51 -180 -48 -208 -30 -8 -44 -6 -78 10 -46 23 -65 51 -69 104 -6 100 110
157 195 94z m95 -379 c142 -23 241 -54 350 -111 59 -30 152 -88 189 -118 62
-50 195 -195 205 -224 2 -6 7 -13 11 -16 12 -9 75 -123 94 -170 31 -74 66
-193 66 -221 0 -14 3 -29 7 -32 3 -4 8 -28 9 -52 2 -25 6 -49 9 -54 22 -36 28
-36 -1103 -34 -603 2 -1100 3 -1103 3 -14 0 14 179 43 274 21 74 93 232 114
253 7 7 16 22 19 33 3 11 11 20 16 20 5 0 9 5 9 11 0 25 173 196 250 249 133
90 280 150 455 185 75 15 280 17 360 4z"/>
<path d="M1150 1423 c-116 -18 -283 -74 -342 -115 -14 -10 -29 -18 -32 -18 -4
0 -33 -19 -64 -42 -77 -56 -182 -164 -233 -239 -39 -58 -109 -197 -109 -217 0
-10 76 -42 99 -42 7 0 11 6 8 14 -3 8 -3 16 1 18 5 2 20 28 35 58 56 112 75
137 165 228 110 113 276 202 422 227 19 3 44 8 55 10 11 2 39 4 63 4 l42 1 0
60 0 60 -42 -1 c-24 -1 -54 -3 -68 -6z"/>
</g>
</svg>
