<?xml version="1.0" standalone="no"?>
<!DOCTYPE svg PUBLIC "-//W3C//DTD SVG 20010904//EN"
 "http://www.w3.org/TR/2001/REC-SVG-20010904/DTD/svg10.dtd">
<svg version="1.0" xmlns="http://www.w3.org/2000/svg"
 width="325.000000pt" height="325.000000pt" viewBox="0 0 325.000000 325.000000"
 preserveAspectRatio="xMidYMid meet">
<metadata>
Created by potrace 1.14, written by Peter Selinger 2001-2017
</metadata>
<g transform="translate(0.000000,325.000000) scale(0.100000,-0.100000)"
fill="#000000" stroke="none">
<path d="M2303 3236 c-121 -39 -223 -172 -286 -372 -14 -45 -41 -155 -61 -245
-62 -291 -90 -539 -107 -949 -12 -303 -10 -384 15 -422 26 -40 58 -48 186 -48
l119 0 3 -497 3 -498 29 -58 c19 -40 42 -69 75 -92 109 -79 237 -70 331 25 86
85 80 -26 80 1499 0 1457 1 1432 -54 1525 -13 22 -37 53 -53 68 -65 62 -195
92 -280 64z m184 -132 c16 -12 39 -41 53 -65 l25 -44 3 -1388 c2 -1242 1
-1391 -13 -1418 -49 -94 -203 -91 -249 5 -14 30 -16 99 -16 575 l0 541 -165 0
-165 0 0 168 c0 603 105 1289 230 1507 29 50 86 112 125 134 32 18 140 9 172
-15z"/>
<path d="M762 3219 c-59 -30 -86 -69 -121 -177 -60 -181 -76 -295 -75 -517 0
-174 3 -210 22 -279 42 -153 155 -341 237 -397 l35 -24 0 -813 c0 -903 -4
-851 68 -926 51 -53 104 -76 177 -76 99 0 182 49 228 135 22 40 22 44 27 860
l5 821 43 39 c97 87 185 244 224 402 19 75 22 115 22 268 0 156 -4 197 -27
307 -66 312 -124 398 -269 398 -50 0 -91 -16 -109 -43 -4 -6 -21 0 -40 14 -24
17 -50 24 -94 27 -52 3 -65 0 -99 -23 l-39 -26 -24 22 c-35 34 -133 38 -191 8z
m125 -146 c-3 -32 -16 -121 -27 -198 -14 -89 -22 -195 -23 -290 l-2 -150 88
-3 c78 -2 87 -1 87 15 3 164 31 637 40 652 21 40 82 41 111 1 16 -22 19 -63
29 -315 6 -159 13 -305 16 -322 l5 -33 84 0 84 0 6 44 c10 62 -12 315 -41 489
-14 81 -22 152 -19 157 3 6 22 10 41 10 51 0 78 -33 109 -133 90 -297 97 -608
18 -805 -56 -141 -152 -266 -213 -278 l-30 -6 0 -840 c0 -930 3 -886 -65 -928
-63 -39 -163 -17 -197 42 -10 18 -14 197 -18 873 l-5 850 -24 3 c-39 6 -132
109 -178 198 -74 142 -88 210 -88 429 1 204 15 298 71 475 28 90 56 120 112
120 l35 0 -6 -57z"/>
</g>
</svg>
